<svg width="900" height="520" viewBox="0 0 900 520" xmlns="http://www.w3.org/2000/svg" style="background:#0d1117;font-family:system-ui,-apple-system,sans-serif">
  <defs>
    <marker id="arr" viewBox="0 0 10 10" refX="8" refY="5" markerWidth="6" markerHeight="6" orient="auto-start-reverse">
      <path d="M2 1L8 5L2 9" fill="none" stroke="#8b949e" stroke-width="1.5" stroke-linecap="round" stroke-linejoin="round"/>
    </marker>
  </defs>

  <!-- Title -->
  <text x="450" y="35" text-anchor="middle" fill="#e6edf3" font-size="20" font-weight="600">SonicFlow — Data Platform Architecture</text>

  <!-- Row 1: Data Sources -->
  <text x="50" y="75" fill="#8b949e" font-size="11" font-weight="500" letter-spacing="1">DATA SOURCES</text>
  <rect x="40" y="88" width="170" height="70" rx="8" fill="#161b22" stroke="#30363d" stroke-width="1"/>
  <text x="125" y="116" text-anchor="middle" fill="#e6edf3" font-size="13" font-weight="500">Kaggle Tracks</text>
  <text x="125" y="136" text-anchor="middle" fill="#8b949e" font-size="11">114K songs, 21 cols</text>

  <rect x="230" y="88" width="170" height="70" rx="8" fill="#161b22" stroke="#30363d" stroke-width="1"/>
  <text x="315" y="116" text-anchor="middle" fill="#e6edf3" font-size="13" font-weight="500">Event Generator</text>
  <text x="315" y="136" text-anchor="middle" fill="#8b949e" font-size="11">500K streams, 5K users</text>

  <!-- Arrow down from sources -->
  <line x1="220" y1="158" x2="220" y2="195" stroke="#8b949e" stroke-width="1" marker-end="url(#arr)"/>

  <!-- Row 2: ETL Pipeline -->
  <text x="50" y="210" fill="#8b949e" font-size="11" font-weight="500" letter-spacing="1">ETL PIPELINE</text>
  <rect x="40" y="222" width="130" height="56" rx="8" fill="#1c2333" stroke="#388bfd" stroke-width="1"/>
  <text x="105" y="246" text-anchor="middle" fill="#58a6ff" font-size="12" font-weight="500">Extract</text>
  <text x="105" y="264" text-anchor="middle" fill="#8b949e" font-size="10">profile_data.py</text>

  <line x1="170" y1="250" x2="195" y2="250" stroke="#8b949e" stroke-width="1" marker-end="url(#arr)"/>

  <rect x="200" y="222" width="130" height="56" rx="8" fill="#1c2333" stroke="#388bfd" stroke-width="1"/>
  <text x="265" y="246" text-anchor="middle" fill="#58a6ff" font-size="12" font-weight="500">Transform</text>
  <text x="265" y="264" text-anchor="middle" fill="#8b949e" font-size="10">clean_data.py</text>

  <line x1="330" y1="250" x2="355" y2="250" stroke="#8b949e" stroke-width="1" marker-end="url(#arr)"/>

  <rect x="360" y="222" width="130" height="56" rx="8" fill="#1c2333" stroke="#388bfd" stroke-width="1"/>
  <text x="425" y="246" text-anchor="middle" fill="#58a6ff" font-size="12" font-weight="500">Load</text>
  <text x="425" y="264" text-anchor="middle" fill="#8b949e" font-size="10">load_to_db.py</text>

  <!-- Arrow to PostgreSQL -->
  <line x1="490" y1="250" x2="530" y2="250" stroke="#8b949e" stroke-width="1" marker-end="url(#arr)"/>

  <!-- PostgreSQL -->
  <rect x="535" y="212" width="160" height="76" rx="8" fill="#1a2332" stroke="#3fb950" stroke-width="1"/>
  <text x="615" y="240" text-anchor="middle" fill="#3fb950" font-size="13" font-weight="500">PostgreSQL</text>
  <text x="615" y="258" text-anchor="middle" fill="#8b949e" font-size="10">Star Schema</text>
  <text x="615" y="274" text-anchor="middle" fill="#8b949e" font-size="10">fact + 5 dimensions</text>

  <!-- Row 3: Processing & Cloud -->
  <text x="50" y="325" fill="#8b949e" font-size="11" font-weight="500" letter-spacing="1">PROCESSING</text>

  <!-- Spark -->
  <rect x="40" y="338" width="190" height="76" rx="8" fill="#2a1f14" stroke="#d29922" stroke-width="1"/>
  <text x="135" y="362" text-anchor="middle" fill="#e3b341" font-size="13" font-weight="500">Apache Spark</text>
  <text x="135" y="380" text-anchor="middle" fill="#8b949e" font-size="10">Parquet, partitioning</text>
  <text x="135" y="396" text-anchor="middle" fill="#8b949e" font-size="10">joins, execution plans</text>

  <!-- AWS -->
  <text x="270" y="325" fill="#8b949e" font-size="11" font-weight="500" letter-spacing="1">AWS CLOUD</text>
  <rect x="260" y="338" width="200" height="76" rx="8" fill="#1f1a2e" stroke="#a371f7" stroke-width="1"/>
  <text x="360" y="358" text-anchor="middle" fill="#a371f7" font-size="13" font-weight="500">S3 + Glue + Athena</text>
  <text x="360" y="376" text-anchor="middle" fill="#8b949e" font-size="10">Data lake (raw/clean/curated)</text>
  <text x="360" y="392" text-anchor="middle" fill="#8b949e" font-size="10">Lambda + Step Functions</text>

  <!-- Data Quality -->
  <text x="500" y="325" fill="#8b949e" font-size="11" font-weight="500" letter-spacing="1">DATA QUALITY</text>
  <rect x="490" y="338" width="200" height="76" rx="8" fill="#281c1c" stroke="#f85149" stroke-width="1"/>
  <text x="590" y="358" text-anchor="middle" fill="#f85149" font-size="13" font-weight="500">Validation Engine</text>
  <text x="590" y="376" text-anchor="middle" fill="#8b949e" font-size="10">20 automated checks</text>
  <text x="590" y="392" text-anchor="middle" fill="#8b949e" font-size="10">schema, nulls, integrity</text>

  <!-- Row 4: Analytics -->
  <text x="50" y="455" fill="#8b949e" font-size="11" font-weight="500" letter-spacing="1">ANALYTICS</text>

  <!-- Dashboard -->
  <rect x="40" y="468" width="200" height="44" rx="8" fill="#122117" stroke="#3fb950" stroke-width="1"/>
  <text x="140" y="495" text-anchor="middle" fill="#3fb950" font-size="13" font-weight="500">Metabase Dashboard</text>

  <!-- Arrow from PostgreSQL to Dashboard -->
  <line x1="615" y1="288" x2="615" y2="310" stroke="#8b949e" stroke-width="1" stroke-dasharray="4"/>
  <path d="M615 310 L615 460 L242 460 L242 468" fill="none" stroke="#8b949e" stroke-width="1" stroke-dasharray="4" marker-end="url(#arr)"/>

  <!-- Arrow from ETL to Spark -->
  <line x1="135" y1="278" x2="135" y2="338" stroke="#8b949e" stroke-width="1" stroke-dasharray="4" marker-end="url(#arr)"/>

  <!-- Arrow from ETL to AWS -->
  <path d="M425 278 L425 310 L360 310 L360 338" fill="none" stroke="#8b949e" stroke-width="1" stroke-dasharray="4" marker-end="url(#arr)"/>

  <!-- Arrow from PostgreSQL to Validation -->
  <path d="M695 250 L730 250 L730 376 L692 376" fill="none" stroke="#8b949e" stroke-width="1" stroke-dasharray="4" marker-end="url(#arr)"/>

  <!-- Tech labels along bottom -->
  <text x="450" y="510" text-anchor="middle" fill="#484f58" font-size="10">Python  |  pandas  |  PySpark  |  PostgreSQL  |  AWS (S3, Glue, Athena, Lambda, Step Functions)  |  Docker  |  Metabase</text>
</svg>